<?xml version="1.0" standalone="no"?>
<!DOCTYPE svg PUBLIC "-//W3C//DTD SVG 20010904//EN"
 "http://www.w3.org/TR/2001/REC-SVG-20010904/DTD/svg10.dtd">
<svg version="1.0" xmlns="http://www.w3.org/2000/svg"
 width="394.000000pt" height="394.000000pt" viewBox="0 0 394.000000 394.000000"
 preserveAspectRatio="xMidYMid meet">
<metadata>
Created by potrace 1.11, written by Peter Selinger 2001-2013
</metadata>
<g transform="translate(0.000000,394.000000) scale(0.100000,-0.100000)"
fill="#000000" stroke="none">
<path d="M1805 3703 c-49 -2 -94 -8 -99 -13 -6 -6 -27 -10 -47 -10 -20 0 -53
-7 -72 -15 -20 -8 -50 -15 -66 -15 -16 0 -32 -4 -35 -9 -3 -5 -18 -11 -33 -14
-25 -4 -58 -15 -118 -38 -11 -4 -28 -10 -38 -13 -18 -6 -18 -7 0 -36 9 -16 21
-30 26 -30 6 0 19 -11 31 -23 46 -52 225 -157 266 -157 10 0 21 -4 24 -9 4 -5
30 -12 59 -16 28 -4 57 -12 64 -17 15 -12 387 -12 410 0 10 6 39 13 66 17 26
4 50 11 53 16 3 5 16 9 28 9 13 0 29 7 36 15 7 8 21 15 31 15 11 0 19 5 19 10
0 6 9 10 20 10 11 0 20 4 20 9 0 5 9 12 19 16 11 3 51 37 91 75 80 79 89 109
35 120 -16 4 -40 12 -52 18 -12 7 -33 12 -47 12 -14 0 -28 5 -31 10 -3 6 -23
10 -44 10 -20 0 -46 7 -57 15 -10 8 -38 15 -62 15 -24 0 -51 4 -60 9 -20 10
-307 20 -437 14z"/>
<path d="M1030 3440 c0 -5 -15 -16 -32 -25 -18 -8 -49 -29 -68 -45 -57 -49
-59 -50 -64 -50 -9 0 -246 -241 -246 -249 0 -5 -7 -14 -15 -21 -19 -16 -19
-30 -1 -30 8 0 16 -3 18 -7 3 -8 142 -78 213 -107 22 -9 48 -21 57 -26 10 -6
25 -10 33 -10 8 0 23 -4 33 -9 84 -44 401 -121 637 -153 112 -16 649 -16 755
0 147 21 336 59 362 73 10 5 26 9 36 9 26 0 213 62 287 95 17 7 48 21 70 30
115 49 235 117 235 134 0 14 -112 135 -192 207 -51 46 -185 144 -197 144 -6 0
-11 3 -11 8 0 4 -12 13 -27 19 -25 12 -29 11 -57 -24 -40 -48 -146 -153 -156
-153 -4 0 -23 -13 -41 -30 -19 -16 -48 -37 -66 -45 -18 -9 -35 -20 -38 -25 -3
-6 -15 -10 -26 -10 -10 0 -19 -3 -19 -7 0 -5 -21 -16 -48 -27 -26 -10 -61 -24
-79 -32 -17 -8 -38 -14 -46 -14 -9 0 -19 -4 -22 -10 -3 -5 -21 -10 -39 -10
-19 0 -53 -7 -76 -15 -32 -11 -88 -15 -225 -15 -140 0 -191 4 -218 15 -20 8
-54 15 -76 15 -22 0 -43 5 -46 10 -3 6 -16 10 -29 10 -12 0 -31 7 -42 15 -10
8 -29 15 -41 15 -12 0 -24 4 -28 9 -3 5 -19 12 -35 16 -17 4 -30 11 -30 16 0
5 -7 9 -16 9 -8 0 -30 11 -48 25 -18 14 -36 25 -40 25 -18 0 -129 91 -208 171
-49 48 -88 84 -88 79z"/>
<path d="M429 2787 c-18 -26 -32 -55 -105 -225 -8 -18 -14 -39 -14 -47 0 -9
-4 -23 -9 -33 -10 -20 -31 -100 -42 -162 -22 -128 -30 -193 -25 -206 5 -12
265 -14 1739 -14 954 0 1736 2 1738 4 7 7 -8 141 -24 221 -15 70 -50 193 -67
230 -5 11 -16 38 -25 60 -8 22 -32 75 -53 117 -38 79 -57 93 -82 63 -7 -8 -21
-15 -30 -15 -10 0 -20 -3 -22 -7 -1 -5 -19 -15 -38 -24 -19 -9 -60 -28 -90
-42 -30 -14 -73 -33 -95 -42 -22 -9 -48 -20 -57 -25 -10 -6 -24 -10 -32 -10
-7 0 -27 -7 -42 -15 -16 -8 -37 -15 -46 -15 -9 0 -19 -4 -22 -9 -3 -5 -20 -11
-38 -14 -18 -2 -46 -9 -63 -15 -16 -6 -48 -15 -70 -21 -22 -6 -65 -17 -95 -25
-54 -15 -84 -21 -250 -50 -141 -25 -233 -31 -495 -31 -296 0 -465 15 -635 55
-49 12 -128 30 -175 40 -71 15 -130 33 -139 41 -6 5 -22 9 -37 9 -15 0 -30 4
-33 9 -3 5 -18 11 -33 14 -27 5 -140 45 -193 68 -14 6 -38 17 -55 24 -74 31
-210 100 -213 107 -6 13 -16 9 -33 -15z"/>
<path d="M234 1838 c-27 -44 41 -368 114 -538 22 -52 80 -173 90 -188 8 -11
17 -9 48 10 37 24 119 64 249 123 252 115 575 201 890 237 128 14 604 14 715
-1 187 -25 307 -47 450 -84 108 -28 294 -89 357 -118 24 -10 45 -19 48 -19 10
0 93 -39 199 -91 54 -28 105 -48 112 -45 11 4 66 111 93 181 5 11 13 31 19 45
6 14 17 48 26 75 9 28 23 72 31 98 8 26 15 57 15 69 0 12 4 35 9 52 5 17 15
66 21 110 10 64 9 80 -2 87 -7 5 -792 9 -1745 9 -1344 0 -1733 -3 -1739 -12z"/>
<path d="M1655 1234 c-115 -15 -158 -22 -290 -49 -162 -33 -298 -73 -475 -142
-113 -44 -295 -138 -298 -154 -5 -26 222 -256 329 -331 13 -10 43 -31 66 -48
24 -16 51 -30 60 -30 10 0 54 37 98 81 113 115 204 179 370 258 143 68 293
101 465 101 322 0 613 -120 838 -348 l93 -93 52 33 c61 39 67 44 161 124 107
92 240 239 230 255 -9 15 -158 94 -239 128 -43 18 -86 37 -94 41 -14 8 -77 29
-226 75 -122 39 -230 61 -445 91 -158 23 -548 27 -695 8z"/>
<path d="M1835 675 c-83 -13 -179 -38 -215 -56 -8 -4 -33 -15 -55 -25 -47 -22
-109 -61 -144 -89 -51 -41 -141 -133 -141 -144 0 -14 58 -40 172 -75 255 -79
627 -99 853 -47 22 6 75 18 118 27 43 9 80 21 83 26 3 4 14 8 26 8 18 0 51 12
116 43 12 6 22 16 22 24 0 27 -145 155 -225 199 -67 36 -87 45 -150 68 -134
47 -318 64 -460 41z"/>
</g>
</svg>
